<svg width="194" height="100" viewBox="0 0 194 100" fill="none" xmlns="http://www.w3.org/2000/svg">
<rect x="1" y="1" width="58" height="58" stroke="white" stroke-width="2"/>
<path d="M30 10L51.6506 47.5L8.34937 47.5L30 10Z" fill="white"/>
<rect x="67.5" y="1.5" width="58" height="58" stroke="white" stroke-width="2"/>
<path d="M110.929 38.428C110.929 39.9 110.721 41.244 110.305 42.46C109.889 43.644 109.153 44.668 108.097 45.532C107.073 46.364 105.649 47.02 103.825 47.5C102.001 47.98 99.6806 48.22 96.8646 48.22C94.0806 48.22 91.7766 47.98 89.9526 47.5C88.1606 47.02 86.7366 46.364 85.6806 45.532C84.6566 44.668 83.9366 43.644 83.5206 42.46C83.1366 41.244 82.9446 39.9 82.9446 38.428V30.652C82.9446 30.044 83.0726 29.612 83.3286 29.356C83.6166 29.068 84.0646 28.924 84.6726 28.924H91.6326C92.2406 28.924 92.6726 29.068 92.9286 29.356C93.2166 29.612 93.3606 30.044 93.3606 30.652V36.508C93.3606 37.148 93.5526 37.692 93.9366 38.14C94.3526 38.556 95.2966 38.764 96.7686 38.764C98.1446 38.764 99.0086 38.556 99.3606 38.14C99.7446 37.692 99.9366 37.148 99.9366 36.508V14.668C99.9366 14.06 100.065 13.628 100.321 13.372C100.609 13.084 101.057 12.94 101.665 12.94L109.201 12.94C109.809 12.94 110.241 13.084 110.497 13.372C110.785 13.628 110.929 14.06 110.929 14.668V38.428Z" fill="white"/>
<path d="M110.305 42.46L112.191 43.123L112.194 43.1152L112.197 43.1074L110.305 42.46ZM108.097 45.532L109.358 47.0842L109.363 47.0799L108.097 45.532ZM103.825 47.5L103.316 45.5658H103.316L103.825 47.5ZM89.9526 47.5L89.4351 49.4319L89.4436 49.4342L89.9526 47.5ZM85.6806 45.532L84.3908 47.0606L84.4165 47.0822L84.4428 47.103L85.6806 45.532ZM83.5206 42.46L81.6134 43.0623L81.623 43.0928L81.6336 43.123L83.5206 42.46ZM83.3286 29.356L81.9143 27.9418H81.9143L83.3286 29.356ZM92.9286 29.356L91.4337 30.6847L91.5119 30.7727L91.5998 30.8508L92.9286 29.356ZM93.9366 38.14L92.418 39.4416L92.468 39.4999L92.5224 39.5542L93.9366 38.14ZM99.3606 38.14L97.842 36.8384L97.8338 36.8481L99.3606 38.14ZM110.497 13.372L109.002 14.7007L109.08 14.7887L109.168 14.8668L110.497 13.372ZM108.929 38.428C108.929 39.7112 108.747 40.8329 108.412 41.8126L112.197 43.1074C112.694 41.6551 112.929 40.0888 112.929 38.428H108.929ZM108.418 41.797C108.134 42.6047 107.628 43.3315 106.83 43.9841L109.363 47.0799C110.677 46.0045 111.643 44.6833 112.191 43.123L108.418 41.797ZM106.835 43.9798C106.106 44.5727 104.974 45.1294 103.316 45.5658L104.334 49.4342C106.323 48.9106 108.039 48.1553 109.358 47.0842L106.835 43.9798ZM103.316 45.5658C101.718 45.9864 99.5844 46.22 96.8646 46.22V50.22C99.7768 50.22 102.283 49.9736 104.334 49.4342L103.316 45.5658ZM96.8646 46.22C94.1791 46.22 92.061 45.9868 90.4615 45.5658L89.4436 49.4342C91.4922 49.9732 93.9821 50.22 96.8646 50.22V46.22ZM90.47 45.5681C88.847 45.1334 87.6966 44.5742 86.9183 43.961L84.4428 47.103C85.7765 48.1538 87.4742 48.9067 89.4351 49.4319L90.47 45.5681ZM86.9703 44.0034C86.1999 43.3534 85.6972 42.6215 85.4075 41.797L81.6336 43.123C82.176 44.6665 83.1132 45.9826 84.3908 47.0606L86.9703 44.0034ZM85.4277 41.8577C85.1139 40.864 84.9446 39.7265 84.9446 38.428H80.9446C80.9446 40.0735 81.1592 41.624 81.6134 43.0623L85.4277 41.8577ZM84.9446 38.428V30.652H80.9446V38.428H84.9446ZM84.9446 30.652C84.9446 30.569 84.949 30.5106 84.9536 30.4733C84.9582 30.4357 84.9621 30.4268 84.9582 30.4402C84.9503 30.4668 84.9013 30.6117 84.7428 30.7702L81.9143 27.9418C81.097 28.7591 80.9446 29.8532 80.9446 30.652H84.9446ZM84.7428 30.7702C84.689 30.824 84.6346 30.8639 84.587 30.8918C84.5403 30.9192 84.5061 30.9317 84.4926 30.9361C84.4707 30.9431 84.519 30.924 84.6726 30.924V26.924C83.7929 26.924 82.7275 27.1286 81.9143 27.9418L84.7428 30.7702ZM84.6726 30.924H91.6326V26.924H84.6726V30.924ZM91.6326 30.924C91.789 30.924 91.8234 30.9438 91.7801 30.9294C91.7245 30.9108 91.5776 30.8465 91.4337 30.6847L94.4234 28.0273C93.6151 27.1179 92.4863 26.924 91.6326 26.924V30.924ZM91.5998 30.8508C91.438 30.707 91.3737 30.56 91.3552 30.5045C91.3408 30.4611 91.3606 30.4955 91.3606 30.652L95.3606 30.652C95.3606 29.7982 95.1666 28.6695 94.2573 27.8612L91.5998 30.8508ZM91.3606 30.652V36.508H95.3606V30.652L91.3606 30.652ZM91.3606 36.508C91.3606 37.5818 91.6961 38.5993 92.418 39.4416L95.4551 36.8384C95.409 36.7847 95.3606 36.7141 95.3606 36.508H91.3606ZM92.5224 39.5542C93.1225 40.1544 93.8973 40.4226 94.5262 40.5611C95.1925 40.708 95.9546 40.764 96.7686 40.764V36.764C96.1105 36.764 95.6646 36.716 95.3869 36.6549C95.0718 36.5854 95.1666 36.5416 95.3508 36.7258L92.5224 39.5542ZM96.7686 40.764C97.5383 40.764 98.2719 40.7077 98.9167 40.5524C99.5231 40.4065 100.312 40.1118 100.887 39.4319L97.8338 36.8481C97.9535 36.7066 98.0623 36.6465 98.0875 36.6336C98.1116 36.6212 98.0855 36.6383 97.9805 36.6636C97.7612 36.7163 97.3748 36.764 96.7686 36.764V40.764ZM100.879 39.4416C101.601 38.5993 101.937 37.5818 101.937 36.508H97.9366C97.9366 36.7141 97.8881 36.7847 97.8421 36.8384L100.879 39.4416ZM101.937 36.508V14.668L97.9366 14.668V36.508H101.937ZM101.937 14.668C101.937 14.585 101.941 14.5266 101.946 14.4893C101.95 14.4517 101.954 14.4428 101.95 14.4562C101.942 14.4828 101.893 14.6277 101.735 14.7862L98.9064 11.9578C98.089 12.7751 97.9366 13.8692 97.9366 14.668L101.937 14.668ZM101.735 14.7862C101.681 14.84 101.627 14.8799 101.579 14.9078C101.532 14.9352 101.498 14.9477 101.485 14.9521C101.463 14.9591 101.511 14.94 101.665 14.94V10.94C100.785 10.94 99.7196 11.1446 98.9064 11.9578L101.735 14.7862ZM101.665 14.94L109.201 14.94V10.94L101.665 10.94V14.94ZM109.201 14.94C109.357 14.94 109.391 14.9598 109.348 14.9454C109.293 14.9268 109.146 14.8625 109.002 14.7007L111.991 12.0433C111.183 11.1339 110.054 10.94 109.201 10.94V14.94ZM109.168 14.8668C109.006 14.723 108.942 14.576 108.923 14.5205C108.909 14.4771 108.929 14.5115 108.929 14.668H112.929C112.929 13.8142 112.735 12.6855 111.825 11.8772L109.168 14.8668ZM108.929 14.668V38.428H112.929V14.668H108.929Z" fill="white"/>
<rect x="135" y="1" width="58" height="58" stroke="white" stroke-width="2"/>
<path d="M165.5 18.25V41H162.531V18.25H165.5ZM172.812 18.25V20.7187L155.234 20.7187V18.25L172.812 18.25Z" fill="white"/>
<path d="M165.5 18.25H173.5V10.25L165.5 10.25V18.25ZM165.5 41V49H173.5V41H165.5ZM162.531 41H154.531V49H162.531V41ZM162.531 18.25V10.25L154.531 10.25V18.25L162.531 18.25ZM172.812 18.25L180.812 18.25V10.25L172.812 10.25V18.25ZM172.812 20.7187V28.7187L180.812 28.7187V20.7187L172.812 20.7187ZM155.234 20.7187H147.234V28.7187H155.234V20.7187ZM155.234 18.25V10.25L147.234 10.25V18.25H155.234ZM157.5 18.25V41H173.5V18.25L157.5 18.25ZM165.5 33H162.531V49H165.5V33ZM170.531 41V18.25L154.531 18.25V41H170.531ZM162.531 26.25H165.5V10.25H162.531V26.25ZM164.812 18.25V20.7187L180.812 20.7187V18.25L164.812 18.25ZM172.812 12.7187L155.234 12.7187V28.7187L172.812 28.7187V12.7187ZM163.234 20.7187V18.25L147.234 18.25V20.7187L163.234 20.7187ZM155.234 26.25L172.812 26.25V10.25L155.234 10.25V26.25Z" fill="white"/>
<line x1="164" y1="73.5" x2="194" y2="73.5" stroke="white"/>
<line y1="73.5" x2="30" y2="73.5" stroke="white"/>
<path d="M36.9492 70.2246L34.125 78H32.9707L36.2227 69.4688H36.9668L36.9492 70.2246ZM39.3164 78L36.4863 70.2246L36.4687 69.4688H37.2129L40.4766 78H39.3164ZM39.1699 74.8418V75.7676H34.377V74.8418H39.1699ZM44.6602 74.0098H42.498L42.4863 73.1016H44.4492C44.7734 73.1016 45.0566 73.0469 45.2988 72.9375C45.541 72.8281 45.7285 72.6719 45.8613 72.4688C45.998 72.2617 46.0664 72.0156 46.0664 71.7305C46.0664 71.418 46.0059 71.1641 45.8848 70.9688C45.7676 70.7695 45.5859 70.625 45.3398 70.5352C45.0977 70.4414 44.7891 70.3945 44.4141 70.3945H42.75V78H41.6191V69.4688H44.4141C44.8516 69.4688 45.2422 69.5137 45.5859 69.6035C45.9297 69.6895 46.2207 69.8262 46.459 70.0137C46.7012 70.1973 46.8848 70.4316 47.0098 70.7168C47.1348 71.002 47.1973 71.3438 47.1973 71.7422C47.1973 72.0938 47.1074 72.4121 46.9277 72.6973C46.748 72.9785 46.498 73.209 46.1777 73.3887C45.8613 73.5684 45.4902 73.6836 45.0645 73.7344L44.6602 74.0098ZM44.6074 78H42.0527L42.6914 77.0801H44.6074C44.9668 77.0801 45.2715 77.0176 45.5215 76.8926C45.7754 76.7676 45.9687 76.5918 46.1016 76.3652C46.2344 76.1348 46.3008 75.8633 46.3008 75.5508C46.3008 75.2344 46.2441 74.9609 46.1309 74.7305C46.0176 74.5 45.8398 74.3223 45.5977 74.1973C45.3555 74.0723 45.043 74.0098 44.6602 74.0098H43.0488L43.0605 73.1016H45.2637L45.5039 73.4297C45.9141 73.4648 46.2617 73.582 46.5469 73.7812C46.832 73.9766 47.0488 74.2266 47.1973 74.5313C47.3496 74.8359 47.4258 75.1719 47.4258 75.5391C47.4258 76.0703 47.3086 76.5195 47.0742 76.8867C46.8437 77.25 46.5176 77.5273 46.0957 77.7188C45.6738 77.9062 45.1777 78 44.6074 78ZM54.668 73.1367V74.0566H50.0508V73.1367H54.668ZM50.2266 69.4688V78H49.0957V69.4688H50.2266ZM55.6523 69.4688V78H54.5273V69.4688H55.6523ZM58.875 69.4688V78H57.7441V69.4688H58.875ZM63.2402 78H61.459L61.4707 77.0801H63.2402C63.8496 77.0801 64.3574 76.9531 64.7637 76.6992C65.1699 76.4414 65.4746 76.082 65.6777 75.6211C65.8848 75.1563 65.9883 74.6133 65.9883 73.9922V73.4707C65.9883 72.9824 65.9297 72.5488 65.8125 72.1699C65.6953 71.7871 65.5234 71.4648 65.2969 71.2031C65.0703 70.9375 64.793 70.7363 64.4648 70.5996C64.1406 70.4629 63.7676 70.3945 63.3457 70.3945H61.4238V69.4688H63.3457C63.9043 69.4688 64.4141 69.5625 64.875 69.75C65.3359 69.9336 65.7324 70.2012 66.0645 70.5527C66.4004 70.9004 66.6582 71.3223 66.8379 71.8184C67.0176 72.3105 67.1074 72.8652 67.1074 73.4824V73.9922C67.1074 74.6094 67.0176 75.166 66.8379 75.6621C66.6582 76.1543 66.3984 76.5742 66.0586 76.9219C65.7227 77.2695 65.3164 77.5371 64.8398 77.7246C64.3672 77.9082 63.834 78 63.2402 78ZM62.0625 69.4688V78H60.9316V69.4688H62.0625ZM71.8359 70.2246L69.0117 78H67.8574L71.1094 69.4688H71.8535L71.8359 70.2246ZM74.2031 78L71.373 70.2246L71.3555 69.4688H72.0996L75.3633 78H74.2031ZM74.0566 74.8418V75.7676H69.2637V74.8418H74.0566ZM83.0684 69.4688L83.0684 78H81.9316L77.6367 71.4199L77.6367 78H76.5059L76.5059 69.4688H77.6367L81.9492 76.0664V69.4688H83.0684ZM91.6289 75.5098V69.4688H92.7539V75.5098C92.7539 76.0723 92.6387 76.5469 92.4082 76.9336C92.1777 77.3203 91.8594 77.6152 91.4531 77.8184C91.0508 78.0176 90.5879 78.1172 90.0645 78.1172C89.541 78.1172 89.0762 78.0273 88.6699 77.8477C88.2637 77.668 87.9453 77.3945 87.7148 77.0273C87.4844 76.6602 87.3691 76.1973 87.3691 75.6387H88.5C88.5 75.998 88.5664 76.293 88.6992 76.5234C88.832 76.7539 89.0156 76.9238 89.25 77.0332C89.4883 77.1426 89.7598 77.1973 90.0645 77.1973C90.3613 77.1973 90.627 77.1348 90.8613 77.0098C91.0996 76.8809 91.2871 76.6914 91.4238 76.4414C91.5605 76.1875 91.6289 75.877 91.6289 75.5098ZM99.5508 69.4688H100.676V75.2402C100.676 75.8809 100.533 76.4141 100.248 76.8398C99.9629 77.2656 99.584 77.5859 99.1113 77.8008C98.6426 78.0117 98.1328 78.1172 97.582 78.1172C97.0039 78.1172 96.4805 78.0117 96.0117 77.8008C95.5469 77.5859 95.1777 77.2656 94.9043 76.8398C94.6348 76.4141 94.5 75.8809 94.5 75.2402V69.4688H95.6191V75.2402C95.6191 75.6855 95.7012 76.0527 95.8652 76.3418C96.0293 76.6309 96.2578 76.8457 96.5508 76.9863C96.8477 77.127 97.1914 77.1973 97.582 77.1973C97.9766 77.1973 98.3203 77.127 98.6133 76.9863C98.9102 76.8457 99.1406 76.6309 99.3047 76.3418C99.4688 76.0527 99.5508 75.6855 99.5508 75.2402V69.4688ZM109.014 69.4688L109.014 78H107.877L103.582 71.4199L103.582 78H102.451L102.451 69.4688H103.582L107.895 76.0664V69.4688H109.014ZM117.322 73.752L117.322 76.875C117.217 77.0313 117.049 77.207 116.818 77.4023C116.588 77.5938 116.27 77.7617 115.863 77.9063C115.461 78.0469 114.941 78.1172 114.305 78.1172C113.785 78.1172 113.307 78.0273 112.869 77.8477C112.436 77.6641 112.059 77.3984 111.738 77.0508C111.422 76.6992 111.176 76.2734 111 75.7734C110.828 75.2695 110.742 74.6992 110.742 74.0625V73.4004C110.742 72.7637 110.816 72.1953 110.965 71.6953C111.117 71.1953 111.34 70.7715 111.633 70.4238C111.926 70.0723 112.285 69.8066 112.711 69.627C113.137 69.4434 113.625 69.3516 114.176 69.3516C114.828 69.3516 115.373 69.4648 115.811 69.6914C116.252 69.9141 116.596 70.2227 116.842 70.6172C117.092 71.0117 117.252 71.4609 117.322 71.9648H116.191C116.141 71.6563 116.039 71.375 115.887 71.1211C115.738 70.8672 115.525 70.6641 115.248 70.5117C114.971 70.3555 114.613 70.2773 114.176 70.2773C113.781 70.2773 113.439 70.3496 113.15 70.4941C112.861 70.6387 112.623 70.8457 112.436 71.1152C112.248 71.3848 112.107 71.7109 112.014 72.0938C111.924 72.4766 111.879 72.9082 111.879 73.3887V74.0625C111.879 74.5547 111.936 74.9941 112.049 75.3809C112.166 75.7676 112.332 76.0977 112.547 76.3711C112.762 76.6406 113.018 76.8457 113.314 76.9863C113.615 77.127 113.947 77.1973 114.311 77.1973C114.713 77.1973 115.039 77.1641 115.289 77.0977C115.539 77.0273 115.734 76.9453 115.875 76.8516C116.016 76.7539 116.123 76.6621 116.197 76.5762V74.666H114.223V73.752H117.322ZM125.092 69.4688L125.092 78H123.979L123.979 69.4688H125.092ZM127.834 69.4688V70.3945H121.242V69.4688H127.834ZM134.672 73.1367V74.0566H130.055V73.1367H134.672ZM130.23 69.4688V78H129.1V69.4688H130.23ZM135.656 69.4688V78H134.531V69.4688H135.656ZM140.93 70.2246L138.105 78H136.951L140.203 69.4688H140.947L140.93 70.2246ZM143.297 78L140.467 70.2246L140.449 69.4688H141.193L144.457 78H143.297ZM143.15 74.8418V75.7676H138.357V74.8418H143.15ZM148.746 74.6543H146.467V73.7344H148.746C149.188 73.7344 149.545 73.6641 149.818 73.5234C150.092 73.3828 150.291 73.1875 150.416 72.9375C150.545 72.6875 150.609 72.4023 150.609 72.082C150.609 71.7891 150.545 71.5137 150.416 71.2559C150.291 70.998 150.092 70.791 149.818 70.6348C149.545 70.4746 149.188 70.3945 148.746 70.3945H146.73V78H145.6V69.4688H148.746C149.391 69.4688 149.936 69.5801 150.381 69.8027C150.826 70.0254 151.164 70.334 151.395 70.7285C151.625 71.1191 151.74 71.5664 151.74 72.0703C151.74 72.6172 151.625 73.084 151.395 73.4707C151.164 73.8574 150.826 74.1523 150.381 74.3555C149.936 74.5547 149.391 74.6543 148.746 74.6543ZM155.52 70.2246L152.695 78H151.541L154.793 69.4688H155.537L155.52 70.2246ZM157.887 78L155.057 70.2246L155.039 69.4688H155.783L159.047 78H157.887ZM157.74 74.8418V75.7676H152.947V74.8418H157.74Z" fill="white"/>
</svg>
