<svg width="100" height="194" viewBox="0 0 100 194" fill="none" xmlns="http://www.w3.org/2000/svg">
<rect x="1" y="1" width="58" height="58" stroke="#FD1056" stroke-width="2"/>
<path d="M30 10L51.6506 47.5H8.34937L30 10Z" fill="#FD1056"/>
<rect x="1" y="68" width="58" height="58" stroke="#FD1056" stroke-width="2"/>
<path d="M44.4286 104.928C44.4286 106.4 44.2206 107.744 43.8046 108.96C43.3886 110.144 42.6526 111.168 41.5966 112.032C40.5726 112.864 39.1486 113.52 37.3246 114C35.5006 114.48 33.1806 114.72 30.3646 114.72C27.5806 114.72 25.2766 114.48 23.4526 114C21.6606 113.52 20.2366 112.864 19.1806 112.032C18.1566 111.168 17.4366 110.144 17.0206 108.96C16.6366 107.744 16.4446 106.4 16.4446 104.928V97.152C16.4446 96.544 16.5726 96.112 16.8286 95.856C17.1166 95.568 17.5646 95.424 18.1726 95.424H25.1326C25.7406 95.424 26.1726 95.568 26.4286 95.856C26.7166 96.112 26.8606 96.544 26.8606 97.152V103.008C26.8606 103.648 27.0526 104.192 27.4366 104.64C27.8526 105.056 28.7966 105.264 30.2686 105.264C31.6446 105.264 32.5086 105.056 32.8606 104.64C33.2446 104.192 33.4366 103.648 33.4366 103.008V81.168C33.4366 80.56 33.5646 80.128 33.8206 79.872C34.1086 79.584 34.5566 79.44 35.1646 79.44H42.7006C43.3086 79.44 43.7406 79.584 43.9966 79.872C44.2846 80.128 44.4286 80.56 44.4286 81.168V104.928Z" fill="#FD1056"/>
<path d="M43.8046 108.96L45.6915 109.623L45.6942 109.615L45.6969 109.607L43.8046 108.96ZM41.5966 112.032L42.8578 113.584L42.863 113.58L41.5966 112.032ZM37.3246 114L36.8156 112.066L36.8156 112.066L37.3246 114ZM23.4526 114L22.9351 115.932L22.9436 115.934L23.4526 114ZM19.1806 112.032L17.8908 113.561L17.9165 113.582L17.9428 113.603L19.1806 112.032ZM17.0206 108.96L15.1134 109.562L15.123 109.593L15.1336 109.623L17.0206 108.96ZM16.8286 95.856L15.4143 94.4418L15.4143 94.4418L16.8286 95.856ZM26.4286 95.856L24.9337 97.1847L25.0119 97.2727L25.0998 97.3508L26.4286 95.856ZM27.4366 104.64L25.918 105.942L25.968 106L26.0224 106.054L27.4366 104.64ZM32.8606 104.64L31.342 103.338L31.3338 103.348L32.8606 104.64ZM43.9966 79.872L42.5017 81.2007L42.5799 81.2887L42.6678 81.3668L43.9966 79.872ZM42.4286 104.928C42.4286 106.211 42.2474 107.333 41.9122 108.313L45.6969 109.607C46.1937 108.155 46.4286 106.589 46.4286 104.928H42.4286ZM41.9176 108.297C41.6339 109.105 41.1276 109.832 40.3301 110.484L42.863 113.58C44.1775 112.504 45.1433 111.183 45.6915 109.623L41.9176 108.297ZM40.3354 110.48C39.6057 111.073 38.474 111.629 36.8156 112.066L37.8335 115.934C39.8231 115.411 41.5395 114.655 42.8577 113.584L40.3354 110.48ZM36.8156 112.066C35.2176 112.486 33.0844 112.72 30.3646 112.72V116.72C33.2768 116.72 35.7835 116.474 37.8335 115.934L36.8156 112.066ZM30.3646 112.72C27.6791 112.72 25.561 112.487 23.9615 112.066L22.9436 115.934C24.9922 116.473 27.4821 116.72 30.3646 116.72V112.72ZM23.97 112.068C22.347 111.633 21.1966 111.074 20.4183 110.461L17.9428 113.603C19.2765 114.654 20.9742 115.407 22.9351 115.932L23.97 112.068ZM20.4703 110.503C19.6999 109.853 19.1972 109.122 18.9075 108.297L15.1336 109.623C15.676 111.166 16.6132 112.483 17.8908 113.561L20.4703 110.503ZM18.9277 108.358C18.6139 107.364 18.4446 106.227 18.4446 104.928H14.4446C14.4446 106.573 14.6592 108.124 15.1134 109.562L18.9277 108.358ZM18.4446 104.928V97.152H14.4446V104.928H18.4446ZM18.4446 97.152C18.4446 97.069 18.449 97.0106 18.4536 96.9733C18.4582 96.9357 18.4621 96.9268 18.4582 96.9402C18.4503 96.9668 18.4013 97.1117 18.2428 97.2702L15.4143 94.4418C14.597 95.2591 14.4446 96.3532 14.4446 97.152H18.4446ZM18.2428 97.2702C18.189 97.324 18.1346 97.3639 18.087 97.3918C18.0403 97.4192 18.0061 97.4317 17.9926 97.4361C17.9707 97.4431 18.019 97.424 18.1726 97.424V93.424C17.2929 93.424 16.2275 93.6286 15.4143 94.4418L18.2428 97.2702ZM18.1726 97.424H25.1326V93.424H18.1726V97.424ZM25.1326 97.424C25.289 97.424 25.3234 97.4438 25.2801 97.4294C25.2245 97.4108 25.0776 97.3465 24.9337 97.1847L27.9234 94.5273C27.1151 93.6179 25.9863 93.424 25.1326 93.424V97.424ZM25.0998 97.3508C24.938 97.207 24.8737 97.06 24.8552 97.0045C24.8408 96.9611 24.8606 96.9955 24.8606 97.152H28.8606C28.8606 96.2982 28.6666 95.1695 27.7573 94.3612L25.0998 97.3508ZM24.8606 97.152V103.008H28.8606V97.152H24.8606ZM24.8606 103.008C24.8606 104.082 25.1961 105.099 25.918 105.942L28.9551 103.338C28.909 103.285 28.8606 103.214 28.8606 103.008H24.8606ZM26.0224 106.054C26.6225 106.654 27.3973 106.923 28.0262 107.061C28.6925 107.208 29.4546 107.264 30.2686 107.264V103.264C29.6105 103.264 29.1646 103.216 28.8869 103.155C28.5718 103.085 28.6666 103.042 28.8508 103.226L26.0224 106.054ZM30.2686 107.264C31.0383 107.264 31.7719 107.208 32.4167 107.052C33.0231 106.906 33.812 106.612 34.3873 105.932L31.3338 103.348C31.4535 103.207 31.5623 103.147 31.5875 103.134C31.6116 103.121 31.5855 103.138 31.4805 103.164C31.2612 103.216 30.8748 103.264 30.2686 103.264V107.264ZM34.3791 105.942C35.101 105.099 35.4366 104.082 35.4366 103.008H31.4366C31.4366 103.214 31.3881 103.285 31.342 103.338L34.3791 105.942ZM35.4366 103.008V81.168H31.4366V103.008H35.4366ZM35.4366 81.168C35.4366 81.085 35.441 81.0266 35.4456 80.9893C35.4502 80.9517 35.4541 80.9428 35.4502 80.9562C35.4423 80.9828 35.3933 81.1277 35.2348 81.2862L32.4064 78.4578C31.589 79.2751 31.4366 80.3692 31.4366 81.168H35.4366ZM35.2348 81.2862C35.181 81.34 35.1266 81.3799 35.079 81.4078C35.0323 81.4352 34.9981 81.4477 34.9846 81.4521C34.9627 81.4591 35.011 81.44 35.1646 81.44V77.44C34.2849 77.44 33.2196 77.6446 32.4064 78.4578L35.2348 81.2862ZM35.1646 81.44H42.7006V77.44H35.1646V81.44ZM42.7006 81.44C42.857 81.44 42.8914 81.4598 42.8481 81.4454C42.7925 81.4268 42.6456 81.3625 42.5017 81.2007L45.4914 78.5433C44.6831 77.6339 43.5543 77.44 42.7006 77.44V81.44ZM42.6678 81.3668C42.506 81.223 42.4417 81.076 42.4232 81.0205C42.4088 80.9771 42.4286 81.0115 42.4286 81.168H46.4286C46.4286 80.3142 46.2346 79.1855 45.3253 78.3772L42.6678 81.3668ZM42.4286 81.168V104.928H46.4286V81.168H42.4286Z" fill="#FD1056"/>
<rect x="1" y="135" width="58" height="58" stroke="#FD1056" stroke-width="2"/>
<path d="M31.5 152.25V175H28.5312V152.25H31.5ZM38.8125 152.25V154.719H21.2344V152.25H38.8125Z" fill="#FD1056"/>
<path d="M31.5 152.25H39.5V144.25H31.5V152.25ZM31.5 175V183H39.5V175H31.5ZM28.5312 175H20.5312V183H28.5312V175ZM28.5312 152.25V144.25H20.5312V152.25H28.5312ZM38.8125 152.25H46.8125V144.25H38.8125V152.25ZM38.8125 154.719V162.719H46.8125V154.719H38.8125ZM21.2344 154.719H13.2344V162.719H21.2344V154.719ZM21.2344 152.25V144.25H13.2344V152.25H21.2344ZM23.5 152.25V175H39.5V152.25H23.5ZM31.5 167H28.5312V183H31.5V167ZM36.5312 175V152.25H20.5312V175H36.5312ZM28.5312 160.25H31.5V144.25H28.5312V160.25ZM30.8125 152.25V154.719H46.8125V152.25H30.8125ZM38.8125 146.719H21.2344V162.719H38.8125V146.719ZM29.2344 154.719V152.25H13.2344V154.719H29.2344ZM21.2344 160.25H38.8125V144.25H21.2344V160.25Z" fill="#FD1056"/>
<line x1="73.5" y1="30" x2="73.5" stroke="#FD1056"/>
<line x1="73.5" y1="194" x2="73.5" y2="164" stroke="#FD1056"/>
<path d="M70.2246 157.051L78 159.875V161.029L69.4688 157.777V157.033L70.2246 157.051ZM78 154.684L70.2246 157.514L69.4688 157.531V156.787L78 153.523V154.684ZM74.8418 154.83H75.7676V159.623H74.8418V154.83ZM74.0098 149.34V151.502L73.1016 151.514V149.551C73.1016 149.227 73.0469 148.943 72.9375 148.701C72.8281 148.459 72.6719 148.271 72.4688 148.139C72.2617 148.002 72.0156 147.934 71.7305 147.934C71.418 147.934 71.1641 147.994 70.9688 148.115C70.7695 148.232 70.625 148.414 70.5352 148.66C70.4414 148.902 70.3945 149.211 70.3945 149.586V151.25H78V152.381H69.4688V149.586C69.4688 149.148 69.5137 148.758 69.6035 148.414C69.6895 148.07 69.8262 147.779 70.0137 147.541C70.1973 147.299 70.4316 147.115 70.7168 146.99C71.002 146.865 71.3438 146.803 71.7422 146.803C72.0938 146.803 72.4121 146.893 72.6973 147.072C72.9785 147.252 73.209 147.502 73.3887 147.822C73.5684 148.139 73.6836 148.51 73.7344 148.936L74.0098 149.34ZM78 149.393V151.947L77.0801 151.309V149.393C77.0801 149.033 77.0176 148.729 76.8926 148.479C76.7676 148.225 76.5918 148.031 76.3652 147.898C76.1348 147.766 75.8633 147.699 75.5508 147.699C75.2344 147.699 74.9609 147.756 74.7305 147.869C74.5 147.982 74.3223 148.16 74.1973 148.402C74.0723 148.645 74.0098 148.957 74.0098 149.34V150.951L73.1016 150.939V148.736L73.4297 148.496C73.4648 148.086 73.582 147.738 73.7812 147.453C73.9766 147.168 74.2266 146.951 74.5312 146.803C74.8359 146.65 75.1719 146.574 75.5391 146.574C76.0703 146.574 76.5195 146.691 76.8867 146.926C77.25 147.156 77.5273 147.482 77.7188 147.904C77.9062 148.326 78 148.822 78 149.393ZM73.1367 139.332H74.0566V143.949H73.1367V139.332ZM69.4688 143.773H78V144.904H69.4688V143.773ZM69.4688 138.348H78V139.473H69.4688V138.348ZM69.4688 135.125H78V136.256H69.4688V135.125ZM78 130.76V132.541L77.0801 132.529V130.76C77.0801 130.15 76.9531 129.643 76.6992 129.236C76.4414 128.83 76.082 128.525 75.6211 128.322C75.1562 128.115 74.6133 128.012 73.9922 128.012H73.4707C72.9824 128.012 72.5488 128.07 72.1699 128.188C71.7871 128.305 71.4648 128.477 71.2031 128.703C70.9375 128.93 70.7363 129.207 70.5996 129.535C70.4629 129.859 70.3945 130.232 70.3945 130.654V132.576H69.4688V130.654C69.4688 130.096 69.5625 129.586 69.75 129.125C69.9336 128.664 70.2012 128.268 70.5527 127.936C70.9004 127.6 71.3223 127.342 71.8184 127.162C72.3105 126.982 72.8652 126.893 73.4824 126.893H73.9922C74.6094 126.893 75.166 126.982 75.6621 127.162C76.1543 127.342 76.5742 127.602 76.9219 127.941C77.2695 128.277 77.5371 128.684 77.7246 129.16C77.9082 129.633 78 130.166 78 130.76ZM69.4688 131.938H78V133.068H69.4688V131.938ZM70.2246 122.164L78 124.988V126.143L69.4688 122.891V122.146L70.2246 122.164ZM78 119.797L70.2246 122.627L69.4688 122.645V121.9L78 118.637V119.797ZM74.8418 119.943H75.7676V124.736H74.8418V119.943ZM69.4688 110.932H78V112.068L71.4199 116.363H78V117.494H69.4688V116.363L76.0664 112.051H69.4688V110.932ZM75.5098 102.371H69.4688V101.246H75.5098C76.0723 101.246 76.5469 101.361 76.9336 101.592C77.3203 101.822 77.6152 102.141 77.8184 102.547C78.0176 102.949 78.1172 103.412 78.1172 103.936C78.1172 104.459 78.0273 104.924 77.8477 105.33C77.668 105.736 77.3945 106.055 77.0273 106.285C76.6602 106.516 76.1973 106.631 75.6387 106.631V105.5C75.998 105.5 76.293 105.434 76.5234 105.301C76.7539 105.168 76.9238 104.984 77.0332 104.75C77.1426 104.512 77.1973 104.24 77.1973 103.936C77.1973 103.639 77.1348 103.373 77.0098 103.139C76.8809 102.9 76.6914 102.713 76.4414 102.576C76.1875 102.439 75.877 102.371 75.5098 102.371ZM69.4688 94.4492V93.3242H75.2402C75.8809 93.3242 76.4141 93.4668 76.8398 93.752C77.2656 94.0371 77.5859 94.416 77.8008 94.8887C78.0117 95.3574 78.1172 95.8672 78.1172 96.418C78.1172 96.9961 78.0117 97.5195 77.8008 97.9883C77.5859 98.4531 77.2656 98.8223 76.8398 99.0957C76.4141 99.3652 75.8809 99.5 75.2402 99.5H69.4688V98.3809H75.2402C75.6855 98.3809 76.0527 98.2988 76.3418 98.1348C76.6309 97.9707 76.8457 97.7422 76.9863 97.4492C77.127 97.1523 77.1973 96.8086 77.1973 96.418C77.1973 96.0234 77.127 95.6797 76.9863 95.3867C76.8457 95.0898 76.6309 94.8594 76.3418 94.6953C76.0527 94.5312 75.6855 94.4492 75.2402 94.4492H69.4688ZM69.4688 84.9863H78V86.123L71.4199 90.418H78V91.5488H69.4688V90.418L76.0664 86.1055H69.4688V84.9863ZM73.752 76.6777H76.875C77.0312 76.7832 77.207 76.9512 77.4023 77.1816C77.5938 77.4121 77.7617 77.7305 77.9062 78.1367C78.0469 78.5391 78.1172 79.0586 78.1172 79.6953C78.1172 80.2148 78.0273 80.6934 77.8477 81.1309C77.6641 81.5645 77.3984 81.9414 77.0508 82.2617C76.6992 82.5781 76.2734 82.8242 75.7734 83C75.2695 83.1719 74.6992 83.2578 74.0625 83.2578H73.4004C72.7637 83.2578 72.1953 83.1836 71.6953 83.0352C71.1953 82.8828 70.7715 82.6602 70.4238 82.3672C70.0723 82.0742 69.8066 81.7148 69.627 81.2891C69.4434 80.8633 69.3516 80.375 69.3516 79.8242C69.3516 79.1719 69.4648 78.627 69.6914 78.1895C69.9141 77.748 70.2227 77.4043 70.6172 77.1582C71.0117 76.9082 71.4609 76.748 71.9648 76.6777V77.8086C71.6562 77.8594 71.375 77.9609 71.1211 78.1133C70.8672 78.2617 70.6641 78.4746 70.5117 78.752C70.3555 79.0293 70.2773 79.3867 70.2773 79.8242C70.2773 80.2188 70.3496 80.5605 70.4941 80.8496C70.6387 81.1387 70.8457 81.377 71.1152 81.5645C71.3848 81.752 71.7109 81.8926 72.0938 81.9863C72.4766 82.0762 72.9082 82.1211 73.3887 82.1211H74.0625C74.5547 82.1211 74.9941 82.0645 75.3809 81.9512C75.7676 81.834 76.0977 81.668 76.3711 81.4531C76.6406 81.2383 76.8457 80.9824 76.9863 80.6855C77.127 80.3848 77.1973 80.0527 77.1973 79.6895C77.1973 79.2871 77.1641 78.9609 77.0977 78.7109C77.0273 78.4609 76.9453 78.2656 76.8516 78.125C76.7539 77.9844 76.6621 77.877 76.5762 77.8027H74.666V79.7773H73.752V76.6777ZM69.4688 68.9082H78V70.0215H69.4688V68.9082ZM69.4688 66.166H70.3945V72.7578H69.4688V66.166ZM73.1367 59.3281H74.0566V63.9453H73.1367V59.3281ZM69.4688 63.7695H78V64.9004H69.4688V63.7695ZM69.4688 58.3438H78V59.4688H69.4688V58.3438ZM70.2246 53.0703L78 55.8945V57.0488L69.4688 53.7969V53.0527L70.2246 53.0703ZM78 50.7031L70.2246 53.5332L69.4688 53.5508V52.8066L78 49.543V50.7031ZM74.8418 50.8496H75.7676V55.6426H74.8418V50.8496ZM74.6543 45.2539V47.5332H73.7344V45.2539C73.7344 44.8125 73.6641 44.4551 73.5234 44.1816C73.3828 43.9082 73.1875 43.709 72.9375 43.584C72.6875 43.4551 72.4023 43.3906 72.082 43.3906C71.7891 43.3906 71.5137 43.4551 71.2559 43.584C70.998 43.709 70.791 43.9082 70.6348 44.1816C70.4746 44.4551 70.3945 44.8125 70.3945 45.2539V47.2695H78V48.4004H69.4688V45.2539C69.4688 44.6094 69.5801 44.0645 69.8027 43.6191C70.0254 43.1738 70.334 42.8359 70.7285 42.6055C71.1191 42.375 71.5664 42.2598 72.0703 42.2598C72.6172 42.2598 73.084 42.375 73.4707 42.6055C73.8574 42.8359 74.1523 43.1738 74.3555 43.6191C74.5547 44.0645 74.6543 44.6094 74.6543 45.2539ZM70.2246 38.4805L78 41.3047V42.459L69.4688 39.207V38.4629L70.2246 38.4805ZM78 36.1133L70.2246 38.9434L69.4688 38.9609V38.2168L78 34.9531V36.1133ZM74.8418 36.2598H75.7676L75.7676 41.0527H74.8418L74.8418 36.2598Z" fill="#FD1056"/>
</svg>
