<svg width="160" height="160" viewBox="0 0 160 160" fill="none" xmlns="http://www.w3.org/2000/svg">
<circle cx="80" cy="80" r="80" fill="#FD1056"/>
<path d="M67.8078 64.5781L63.8156 76H61.8312L57.8391 64.5781H59.7609L62.1672 71.7344C62.2401 71.9427 62.3182 72.1953 62.4016 72.4922C62.4901 72.7891 62.5708 73.0885 62.6437 73.3906C62.7219 73.6927 62.7818 73.9609 62.8234 74.1953C62.8651 73.9609 62.9224 73.6927 62.9953 73.3906C63.0734 73.0885 63.1542 72.7891 63.2375 72.4922C63.3208 72.1953 63.399 71.9401 63.4719 71.7266L65.8859 64.5781H67.8078ZM70.9078 76V64.5781H72.7828V76H70.9078ZM83.8672 76H77.3984V64.5781H83.8672V66.1562H79.2734V69.2578H83.5781V70.8281H79.2734V74.4141H83.8672V76ZM101.444 64.5781L98.4594 76H96.4125L94.5062 69.1562C94.4594 68.9896 94.4073 68.7917 94.35 68.5625C94.2927 68.3333 94.2354 68.099 94.1781 67.8594C94.126 67.6198 94.0792 67.401 94.0375 67.2031C94.001 67 93.975 66.8438 93.9594 66.7344C93.949 66.8438 93.9255 66.9974 93.8891 67.1953C93.8526 67.3932 93.8083 67.612 93.7562 67.8516C93.7094 68.0859 93.6573 68.3203 93.6 68.5547C93.5427 68.7839 93.4906 68.987 93.4437 69.1641L91.5687 76H89.5297L86.5531 64.5781H88.4359L90.0844 71.2734C90.1365 71.487 90.1885 71.7188 90.2406 71.9688C90.2979 72.2135 90.35 72.4609 90.3969 72.7109C90.449 72.9609 90.4958 73.2057 90.5375 73.4453C90.5792 73.6797 90.613 73.8932 90.6391 74.0859C90.6651 73.888 90.699 73.6693 90.7406 73.4297C90.7823 73.1849 90.8266 72.9375 90.8734 72.6875C90.9255 72.4323 90.9776 72.1875 91.0297 71.9531C91.087 71.7188 91.1443 71.5078 91.2016 71.3203L93.0609 64.5781H94.8891L96.7875 71.3438C96.8448 71.5365 96.8995 71.7526 96.9516 71.9922C97.0089 72.2318 97.0635 72.4766 97.1156 72.7266C97.1677 72.9766 97.2146 73.2188 97.2562 73.4531C97.2979 73.6875 97.3318 73.8984 97.3578 74.0859C97.3943 73.8307 97.4411 73.5391 97.4984 73.2109C97.5557 72.8828 97.6208 72.5495 97.6937 72.2109C97.7667 71.8724 97.8396 71.5599 97.9125 71.2734L99.5531 64.5781H101.444ZM47.7313 86.5781C49.2052 86.5781 50.2807 86.8802 50.9578 87.4844C51.6349 88.0885 51.9734 88.9349 51.9734 90.0234C51.9734 90.5182 51.8953 90.9896 51.7391 91.4375C51.588 91.8802 51.338 92.2734 50.9891 92.6172C50.6401 92.9557 50.1792 93.224 49.6063 93.4219C49.0385 93.6198 48.338 93.7188 47.5047 93.7188H46.2859V98H44.4109V86.5781H47.7313ZM47.6063 88.1328H46.2859V92.1562H47.3094C47.8979 92.1562 48.3979 92.0885 48.8094 91.9531C49.2208 91.8125 49.5333 91.5911 49.7469 91.2891C49.9604 90.987 50.0672 90.5885 50.0672 90.0938C50.0672 89.4323 49.8667 88.9401 49.4656 88.6172C49.0698 88.2943 48.45 88.1328 47.6063 88.1328ZM59.0656 86.5781C60.05 86.5781 60.8625 86.6979 61.5031 86.9375C62.149 87.1771 62.6281 87.5417 62.9406 88.0312C63.2583 88.5208 63.4172 89.1432 63.4172 89.8984C63.4172 90.4609 63.313 90.9401 63.1047 91.3359C62.8964 91.7318 62.6229 92.0599 62.2844 92.3203C61.9458 92.5807 61.5839 92.7891 61.1984 92.9453L64.4406 98H62.3234L59.5656 93.4219H57.7297V98H55.8547V86.5781H59.0656ZM58.9406 88.1406H57.7297V91.875H59.0266C59.8964 91.875 60.5266 91.7135 60.9172 91.3906C61.313 91.0677 61.5109 90.5911 61.5109 89.9609C61.5109 89.2995 61.3 88.8307 60.8781 88.5547C60.4615 88.2786 59.8156 88.1406 58.9406 88.1406ZM77.8141 92.2734C77.8141 93.1536 77.7021 93.9557 77.4781 94.6797C77.2594 95.3984 76.9286 96.0182 76.4859 96.5391C76.0432 97.0547 75.4885 97.4531 74.8219 97.7344C74.1552 98.0156 73.374 98.1562 72.4781 98.1562C71.5667 98.1562 70.775 98.0156 70.1031 97.7344C69.4365 97.4531 68.8818 97.0521 68.4391 96.5312C68.0016 96.0104 67.6734 95.388 67.4547 94.6641C67.2359 93.9401 67.1266 93.138 67.1266 92.2578C67.1266 91.0807 67.3193 90.0547 67.7047 89.1797C68.0953 88.2995 68.6865 87.6172 69.4781 87.1328C70.275 86.6432 71.2802 86.3984 72.4938 86.3984C73.6813 86.3984 74.6682 86.6406 75.4547 87.125C76.2411 87.6094 76.8297 88.2917 77.2203 89.1719C77.6161 90.0469 77.8141 91.0807 77.8141 92.2734ZM69.0953 92.2734C69.0953 93.1536 69.2151 93.9167 69.4547 94.5625C69.6943 95.2031 70.0615 95.6979 70.5563 96.0469C71.0563 96.3906 71.6969 96.5625 72.4781 96.5625C73.2646 96.5625 73.9052 96.3906 74.4 96.0469C74.8948 95.6979 75.2594 95.2031 75.4938 94.5625C75.7281 93.9167 75.8453 93.1536 75.8453 92.2734C75.8453 90.9349 75.5771 89.888 75.0406 89.1328C74.5094 88.3724 73.6604 87.9922 72.4938 87.9922C71.7125 87.9922 71.0693 88.1641 70.5641 88.5078C70.0641 88.8516 69.6943 89.3438 69.4547 89.9844C69.2151 90.6198 69.0953 91.3828 69.0953 92.2734ZM80.4453 101.18C80.1589 101.18 79.9089 101.161 79.6953 101.125C79.4766 101.094 79.2891 101.049 79.1328 100.992V99.4219C79.2995 99.4635 79.4792 99.5 79.6719 99.5312C79.8646 99.5625 80.0703 99.5781 80.2891 99.5781C80.5755 99.5781 80.8359 99.5234 81.0703 99.4141C81.3047 99.3047 81.4896 99.1068 81.625 98.8203C81.7656 98.5339 81.8359 98.1302 81.8359 97.6094V86.5781H83.7109V97.5469C83.7109 98.3958 83.5755 99.0859 83.3047 99.6172C83.0339 100.154 82.6536 100.547 82.1641 100.797C81.6745 101.052 81.1016 101.18 80.4453 101.18ZM94.7328 98H88.2641V86.5781H94.7328V88.1562H90.1391V91.2578H94.4438V92.8281H90.1391V96.4141H94.7328V98ZM103.669 88.0078C103.122 88.0078 102.632 88.1068 102.2 88.3047C101.773 88.5026 101.411 88.7891 101.114 89.1641C100.817 89.5339 100.591 89.9844 100.434 90.5156C100.278 91.0417 100.2 91.6354 100.2 92.2969C100.2 93.1823 100.325 93.9453 100.575 94.5859C100.825 95.2214 101.205 95.7109 101.716 96.0547C102.226 96.3932 102.872 96.5625 103.653 96.5625C104.137 96.5625 104.609 96.5156 105.067 96.4219C105.526 96.3281 105.999 96.2005 106.489 96.0391V97.6328C106.026 97.8151 105.557 97.9479 105.083 98.0312C104.609 98.1146 104.062 98.1562 103.442 98.1562C102.276 98.1562 101.307 97.9141 100.536 97.4297C99.7703 96.9453 99.1974 96.263 98.8172 95.3828C98.4422 94.5026 98.2547 93.4714 98.2547 92.2891C98.2547 91.4245 98.3745 90.6328 98.6141 89.9141C98.8536 89.1953 99.2026 88.5755 99.6609 88.0547C100.119 87.5286 100.684 87.125 101.356 86.8438C102.033 86.5573 102.807 86.4141 103.677 86.4141C104.249 86.4141 104.812 86.4792 105.364 86.6094C105.921 86.7344 106.437 86.9141 106.911 87.1484L106.255 88.6953C105.859 88.5078 105.445 88.3464 105.012 88.2109C104.58 88.0755 104.132 88.0078 103.669 88.0078ZM114.503 98H112.62V88.1719H109.277V86.5781H117.839V88.1719H114.503V98Z" fill="white"/>
</svg>
